# This file uses centimeters as units for non-parametric coordinates.

mtllib powerup_attached.mtl
g default
v -0.100422 -0.000000 -0.030788
v -0.012753 -0.000000 -0.041745
v -0.100422 1.684645 -0.975542
v -0.012753 1.684645 -0.986499
v -0.100422 -0.000000 -0.975542
v -0.012753 -0.000000 -0.986499
v -0.100422 1.309111 -0.030788
v -0.012753 1.291461 -0.041745
v -0.100422 1.684645 -0.407561
v -0.012753 1.684645 -0.436226
vt 0.001596 0.001992
vt 0.034562 0.001992
vt 0.034562 0.487603
vt 0.001596 0.494240
vt 0.034562 0.635446
vt 0.001596 0.635446
vt 0.040797 0.001992
vt 0.073762 0.001992
vt 0.073762 0.635446
vt 0.040797 0.635446
vt 0.766780 0.642765
vt 0.799746 0.638645
vt 0.799746 0.993888
vt 0.766780 0.998008
vt 0.079841 0.001992
vt 0.435085 0.001992
vt 0.435085 0.635446
vt 0.228173 0.635446
vt 0.079841 0.487603
vt 0.440612 0.001992
vt 0.795855 0.001992
vt 0.795855 0.494240
vt 0.654182 0.635446
vt 0.440612 0.635446
vt 0.728899 0.638645
vt 0.761864 0.649423
vt 0.761864 0.856335
vt 0.728899 0.852215
vn 0.124012 -0.000000 0.992281
vn 0.124012 -0.000000 0.992281
vn 0.124012 -0.000000 0.992281
vn 0.124012 0.000000 0.992281
vn -0.124011 0.000000 -0.992281
vn -0.124011 0.000000 -0.992281
vn -0.124012 0.000000 -0.992281
vn -0.124012 0.000000 -0.992281
vn 0.000000 -1.000000 0.000000
vn 0.000000 -1.000000 0.000000
vn 0.000000 -1.000000 0.000000
vn 0.000000 -1.000000 0.000000
vn 1.000000 -0.000000 0.000000
vn 1.000000 -0.000000 -0.000000
vn 1.000000 -0.000000 -0.000000
vn 1.000000 0.000000 0.000000
vn 1.000000 0.000000 -0.000000
vn -1.000000 0.000000 0.000000
vn -1.000000 0.000000 0.000000
vn -1.000000 0.000000 0.000000
vn -1.000000 0.000000 0.000000
vn -1.000000 0.000000 0.000000
vn 0.000000 1.000000 0.000000
vn 0.000000 1.000000 0.000000
vn 0.000000 1.000000 0.000000
vn 0.000000 1.000000 0.000000
vn 0.224904 0.690126 0.687855
vn 0.224904 0.690126 0.687855
vn 0.224904 0.690125 0.687855
vn 0.224904 0.690125 0.687855
s 1
g pCube1
usemtl initialShadingGroup
f 2/2/1 8/3/2 1/1/3
f 1/1/3 8/3/2 7/4/4
s 2
f 3/7/5 4/8/6 5/10/7
f 5/10/7 4/8/6 6/9/8
s 3
f 6/12/9 2/13/10 5/11/11
f 5/11/11 2/13/10 1/14/12
s 4
f 2/15/13 6/16/14 8/19/15
f 4/17/16 10/18/17 6/16/14
f 6/16/14 10/18/17 8/19/15
s 5
f 5/20/18 1/21/19 3/24/20
f 3/24/20 1/21/19 9/23/21
f 1/21/19 7/22/22 9/23/21
s 6
f 9/25/23 10/26/24 3/28/25
f 3/28/25 10/26/24 4/27/26
s 7
f 7/4/27 8/3/28 9/6/29
f 9/6/29 8/3/28 10/5/30
