v -0.050000 0.000000 -0.500000
v -0.050000 1.600000 -0.500000
v 0.050000 1.600000 -0.500000
v 0.050000 0.000000 -0.500000
v 0.050000 1.600000 0.000000
v 0.050000 1.100000 0.500000
v 0.050000 0.000000 -0.500000
v -0.050000 1.600000 0.000000
v 0.050000 1.600000 0.000000
v 0.050000 1.600000 -0.500000
v -0.050000 1.600000 -0.500000
v 0.050000 1.100000 0.500000
v -0.050000 1.100000 0.500000
v -0.050000 -0.000000 0.500000
v 0.050000 -0.000000 0.500000
v -0.050000 -0.000000 0.500000
v -0.050000 0.000000 -0.500000
v 0.050000 0.000000 -0.500000
v 0.050000 -0.000000 0.500000
v 0.050000 1.600000 -0.500000
v 0.050000 1.600000 0.000000
v -0.050000 1.600000 0.000000
v -0.050000 1.100000 0.500000
v 0.050000 1.100000 0.500000
v 0.050000 -0.000000 0.500000
v -0.050000 0.000000 -0.500000
v -0.050000 1.600000 0.000000
v -0.050000 1.600000 -0.500000
v -0.050000 1.100000 0.500000
v -0.050000 -0.000000 0.500000
vt 0.889830 0.009174
vt 0.932203 0.009174
vt 0.932203 0.743119
vt 0.220339 0.743119
vt 0.008475 0.513762
vt 0.432203 0.009174
vt 0.050847 0.761468
vt 0.050847 0.990826
vt 0.008475 0.990826
vt 0.949153 0.513761
vt 0.949153 0.009174
vt 0.991525 0.009174
vt 0.991525 0.990826
vt 0.949153 0.990826
vt 0.949153 0.532110
vt 0.432203 0.743119
vt 0.067797 0.990826
vt 0.067797 0.761468
vt 0.110169 0.761468
vt 0.008475 0.009174
vt 0.872881 0.743119
vt 0.661017 0.009174
vt 0.872881 0.009174
vt 0.449153 0.238532
vt 0.449153 0.743119
vt 0.889831 0.743119
vt 0.008475 0.761468
vt 0.991525 0.513761
vt 0.991525 0.532110
vt 0.110169 0.990826
vn 0.000000 0.000000 -1.000000
vn 1.000000 0.000000 0.000000
vn 0.000000 1.000000 0.000000
vn 0.000000 -0.000000 1.000000
vn 0.000000 -1.000000 -0.000000
vn 0.000000 0.707100 0.707100
vn -1.000000 -0.000000 0.000000
f 2/1/1 3/2/1 4/3/1
f 5/4/2 6/5/2 7/6/2
f 9/7/3 10/8/3 11/9/3
f 13/10/4 14/11/4 15/12/4
f 17/13/5 18/14/5 19/15/5
f 20/16/2 5/4/2 7/6/2
f 22/17/6 23/18/6 24/19/6
f 6/5/2 25/20/2 7/6/2
f 26/21/7 27/22/7 28/23/7
f 27/22/7 26/21/7 29/24/7
f 26/21/7 30/25/7 29/24/7
f 1/26/1 2/1/1 4/3/1
f 8/27/3 9/7/3 11/9/3
f 12/28/4 13/10/4 15/12/4
f 16/29/5 17/13/5 19/15/5
f 21/30/6 22/17/6 24/19/6