# This file uses centimeters as units for non-parametric coordinates.

mtllib powerup.mtl
g default
v 3.687326 -0.000000 -3.513139
v 3.406666 -0.000000 -4.063967
v 1.071163 -0.000000 -4.612010
v 0.520335 -0.000000 -4.892670
v -0.860065 0.001271 -7.010997
v -1.470663 0.001271 -6.914288
v -2.021491 0.001271 -6.633627
v -2.458630 0.001271 -6.196487
v -1.969488 0.000000 -3.624041
v -2.066197 0.000000 -3.013444
v -3.013322 -0.000000 -0.611137
v -2.732661 -0.000000 -0.060309
v -2.309795 -0.011475 0.417018
v -1.744694 -0.000000 0.657491
v -1.134097 -0.000000 0.754200
v 0.520334 -0.000000 -1.134218
v 1.071162 -0.000000 -1.414880
v 3.406664 -0.000000 -1.741116
v 3.687325 -0.000000 -2.291944
v 3.784034 -0.000000 -2.902541
v 3.687326 0.239674 -3.472951
v 3.406666 0.239674 -4.023779
v 1.071163 0.890358 -4.612010
v 0.520335 0.890358 -4.892670
v -0.860065 0.240945 -6.970810
v -1.470663 0.240945 -6.874101
v -2.021491 0.240945 -6.593440
v -2.458630 0.240945 -6.156300
v -1.969488 0.890358 -3.624041
v -2.066197 0.890358 -3.013444
v -3.013322 0.239674 -0.570949
v -2.732661 0.239674 -0.020122
v -2.295522 0.239674 0.417018
v -1.744694 0.239674 0.697679
v -1.134097 0.239674 0.794388
v 0.520334 0.890358 -1.134218
v 1.071162 0.890358 -1.414880
v 3.406664 0.239674 -1.700928
v 3.687325 0.239674 -2.251756
v 3.784034 0.239674 -2.862353
v -0.355057 -0.650684 -3.201353
v -0.355057 0.890358 -3.241541
v -0.502512 8.177810 -6.993515
v -0.187995 8.046223 1.082979
v -0.520259 1.453037 -7.102387
v -0.205742 1.321450 0.974107
v -0.838101 8.134075 0.890272
v -1.068026 8.002488 -7.189073
v -0.821495 1.409302 0.999324
v -1.051419 1.277716 -7.080021
vt 0.390157 0.496453
vt 0.404091 0.498790
vt 0.390157 0.528477
vt 0.404091 0.530813
vt 0.390157 0.563975
vt 0.404091 0.566312
vt 0.390157 0.599474
vt 0.404091 0.601810
vt 0.390157 0.631497
vt 0.404091 0.633834
vt 0.527829 0.469173
vt 0.527829 0.604953
vt 0.513895 0.469173
vt 0.476066 0.604953
vt 0.527829 0.636976
vt 0.476066 0.636976
vt 0.513821 0.717229
vt 0.527755 0.717229
vt 0.527755 0.752727
vt 0.513821 0.752727
vt 0.527755 0.784751
vt 0.513821 0.784751
vt 0.527755 0.810165
vt 0.513821 0.810165
vt 0.536524 0.857301
vt 0.536450 0.707746
vt 0.550458 0.854964
vt 0.588213 0.707746
vt 0.536450 0.672248
vt 0.588213 0.672248
vt 0.550384 0.530248
vt 0.536450 0.532585
vt 0.536450 0.500561
vt 0.550384 0.498225
vt 0.535783 0.472811
vt 0.550384 0.472811
vt 0.413863 0.830610
vt 0.414530 0.797757
vt 0.428464 0.829781
vt 0.428464 0.797757
vt 0.414530 0.762259
vt 0.428464 0.762259
vt 0.414530 0.666075
vt 0.466293 0.666075
vt 0.414530 0.634051
vt 0.466293 0.634051
vt 0.428464 0.498272
vt 0.414530 0.498272
vt 0.793099 0.180205
vt 0.809416 0.212228
vt 0.574404 0.230354
vt 0.815038 0.247727
vt 0.657320 0.148343
vt 0.809416 0.283225
vt 0.625296 0.132026
vt 0.793099 0.315248
vt 0.545044 0.008873
vt 0.657320 0.334215
vt 0.509546 0.014495
vt 0.625296 0.350532
vt 0.477522 0.030812
vt 0.529112 0.460319
vt 0.452108 0.056226
vt 0.493614 0.454696
vt 0.480545 0.205781
vt 0.460761 0.440716
vt 0.474923 0.241279
vt 0.436177 0.412966
vt 0.419860 0.380942
vt 0.985840 0.725398
vt 0.969523 0.757422
vt 0.750828 0.711945
vt 0.833744 0.791620
vt 0.991462 0.689900
vt 0.801720 0.807937
vt 0.985840 0.654402
vt 0.721468 0.928754
vt 0.969523 0.622378
vt 0.685969 0.923131
vt 0.833744 0.605748
vt 0.653946 0.906815
vt 0.801720 0.589431
vt 0.628532 0.881400
vt 0.705536 0.477308
vt 0.656969 0.734182
vt 0.670038 0.482930
vt 0.651347 0.698684
vt 0.638015 0.499247
vt 0.596284 0.556684
vt 0.612601 0.524661
vt 0.399678 0.011875
vt 0.391896 0.477906
vt 0.001986 0.005593
vt -0.005796 0.471624
vt 0.400601 0.008203
vt 0.392951 0.477913
vt 0.009642 0.001863
vt 0.001992 0.471572
vn 0.367518 0.153797 -0.917212
vn 0.339014 0.086175 -0.936826
vn 0.944660 0.054250 -0.323533
vn 0.954615 0.049255 -0.293742
vn 0.289704 0.002323 -0.957113
vn 0.295028 0.000000 -0.955489
vn 0.771433 0.001299 -0.636309
vn 0.764018 0.000000 -0.645195
vn 0.572501 0.135585 -0.808616
vn 0.695104 0.083672 -0.714023
vn -0.250786 0.160082 -0.954715
vn -0.259412 0.159705 -0.952470
vn -0.574470 0.135357 -0.807256
vn -0.590170 0.133497 -0.796165
vn -0.999935 0.001888 -0.011266
vn -0.995281 -0.003464 0.096972
vn -0.992597 -0.000426 0.121458
vn -0.993456 0.000000 0.114219
vn -0.946670 0.000799 -0.322204
vn -0.948094 0.000000 -0.317991
vn -0.969218 0.040714 -0.242813
vn -0.964767 0.017438 -0.262529
vn -0.827855 -0.092762 0.553220
vn -0.812428 -0.076288 0.578050
vn -0.571132 0.013581 0.820746
vn -0.562800 0.011133 0.826518
vn -0.303920 -0.135380 0.943030
vn -0.300285 -0.157737 0.940717
vn 0.622349 -0.129441 0.771963
vn 0.675091 -0.073859 0.734028
vn 0.705674 -0.001494 0.708535
vn 0.699755 0.000000 0.714383
vn 0.195660 -0.002439 0.980669
vn 0.203890 0.000000 0.978994
vn 0.329850 -0.156115 0.931035
vn 0.227292 -0.088855 0.969764
vn 0.954615 -0.049254 0.293743
vn 0.944660 -0.054249 0.323534
vn 0.999859 0.002773 -0.016540
vn 0.999859 -0.002774 0.016542
vn 0.130271 -0.976992 -0.168868
vn 0.155292 -0.986797 -0.046000
vn -0.017364 -0.999818 -0.007884
vn 0.091293 -0.936160 -0.339516
vn 0.278672 -0.935828 -0.215797
vn 0.096046 -0.978919 -0.180257
vn -0.050868 -0.986148 -0.157874
vn -0.097499 -0.985364 -0.139830
vn -0.216206 -0.974486 -0.060269
vn -0.385133 -0.921358 0.052658
vn -0.364935 -0.921683 -0.131613
vn -0.228518 -0.973488 0.010026
vn -0.146737 -0.984800 0.092934
vn -0.086617 -0.988017 0.127747
vn -0.034967 -0.987465 0.153915
vn 0.082553 -0.980639 0.177573
vn 0.213222 -0.954157 0.210050
vn 0.057076 -0.951873 0.301132
vn 0.105549 -0.980620 0.165060
vn 0.148525 -0.987811 0.046579
vn 0.155210 -0.987881 0.001236
vn 0.156191 0.986660 -0.045896
vn 0.173200 0.984791 0.013732
vn -0.003043 0.999995 0.000593
vn 0.182366 0.964740 0.189785
vn -0.208695 0.971702 -0.110645
vn -0.104444 0.982080 -0.156875
vn -0.051775 0.985706 -0.160319
vn -0.098971 0.984960 -0.141626
vn -0.069034 0.983157 -0.169227
vn 0.051796 0.974435 -0.218616
vn 0.031341 0.971462 0.235118
vn -0.104353 0.985175 0.136164
vn -0.131241 0.986057 0.102307
vn -0.089958 0.987692 0.127951
vn -0.047978 0.988078 0.146286
vn -0.117902 0.983691 0.135835
vn -0.214660 0.972610 0.089171
vn 0.204874 0.965629 -0.159961
vn 0.180689 0.983198 -0.025933
vn 0.147608 0.987946 0.046629
vn 0.155157 0.987889 0.001567
vn 0.999239 -0.002007 -0.038945
vn 0.999239 -0.002007 -0.038945
vn 0.999239 -0.002007 -0.038945
vn 0.999239 -0.002007 -0.038945
vn -0.999592 -0.002007 0.028479
vn -0.999592 -0.002007 0.028479
vn -0.999592 -0.002007 0.028479
vn -0.999592 -0.002007 0.028479
s 1
g polySurface2
usemtl initialShadingGroup
f 2/1/1 22/2/2 1/3/3
f 1/3/3 22/2/2 21/4/4
f 2/11/1 3/12/5 22/13/2
f 22/13/2 3/12/5 23/14/6
f 3/12/5 4/15/7 23/14/6
f 23/14/6 4/15/7 24/16/8
f 5/18/9 25/17/10 4/15/7
f 4/15/7 25/17/10 24/16/8
f 5/18/9 6/19/11 26/20/12 25/17/10
f 6/19/11 7/21/13 26/20/12
f 26/20/12 7/21/13 27/22/14
f 7/21/13 8/23/15 27/22/14
f 27/22/14 8/23/15 28/24/16
f 8/25/15 9/26/17 28/27/16
f 28/27/16 9/26/17 29/28/18
f 9/26/17 10/29/19 29/28/18
f 29/28/18 10/29/19 30/30/20
f 11/32/21 31/31/22 10/29/19
f 10/29/19 31/31/22 30/30/20
f 11/32/21 12/33/23 31/31/22
f 31/31/22 12/33/23 32/34/24
f 12/33/23 13/35/25 32/34/24
f 32/34/24 13/35/25 33/36/26
f 13/37/25 14/38/27 33/39/26
f 33/39/26 14/38/27 34/40/28
f 14/38/27 15/41/29 34/40/28
f 34/40/28 15/41/29 35/42/30
f 15/41/29 16/43/31 35/42/30
f 35/42/30 16/43/31 36/44/32
f 16/43/31 17/45/33 36/44/32
f 36/44/32 17/45/33 37/46/34
f 18/48/35 38/47/36 17/45/33
f 17/45/33 38/47/36 37/46/34
f 19/7/37 39/8/38 18/9/35
f 18/9/35 39/8/38 38/10/36
f 20/5/39 40/6/40 19/7/37
f 19/7/37 40/6/40 39/8/38
f 1/3/3 21/4/4 20/5/39
f 20/5/39 21/4/4 40/6/40
s 7
f 2/49/41 1/50/42 41/51/43
f 3/53/44 2/49/41 41/51/43
f 4/55/45 3/53/44 41/51/43
f 5/57/46 4/55/45 41/51/43
f 6/59/47 5/57/46 41/51/43
f 7/61/48 6/59/47 41/51/43
f 8/63/49 7/61/48 41/51/43
f 9/65/50 8/63/49 41/51/43
f 10/67/51 9/65/50 41/51/43
f 11/69/52 10/67/51 41/51/43
f 12/68/53 11/69/52 41/51/43
f 13/66/54 12/68/53 41/51/43
f 14/64/55 13/66/54 41/51/43
f 15/62/56 14/64/55 41/51/43
f 16/60/57 15/62/56 41/51/43
f 17/58/58 16/60/57 41/51/43
f 18/56/59 17/58/58 41/51/43
f 19/54/60 18/56/59 41/51/43
f 20/52/61 19/54/60 41/51/43
f 1/50/42 20/52/61 41/51/43
s 8
f 21/70/62 22/71/63 42/72/64
f 22/71/63 23/73/65 42/72/64
f 23/73/65 24/75/66 42/72/64
f 24/75/66 25/77/67 42/72/64
f 25/77/67 26/79/68 42/72/64
f 26/79/68 27/81/69 42/72/64
f 27/81/69 28/83/70 42/72/64
f 28/83/70 29/85/71 42/72/64
f 29/85/71 30/87/72 42/72/64
f 30/87/72 31/89/73 42/72/64
f 31/89/73 32/90/74 42/72/64
f 32/90/74 33/88/75 42/72/64
f 33/88/75 34/86/76 42/72/64
f 34/86/76 35/84/77 42/72/64
f 35/84/77 36/82/78 42/72/64
f 36/82/78 37/80/79 42/72/64
f 37/80/79 38/78/80 42/72/64
f 38/78/80 39/76/81 42/72/64
f 39/76/81 40/74/82 42/72/64
f 40/74/82 21/70/62 42/72/64
s 9
f 43/91/83 44/92/84 45/93/85
f 45/93/85 44/92/84 46/94/86
s 10
f 47/95/87 48/96/88 49/97/89
f 49/97/89 48/96/88 50/98/90
