# This file uses centimeters as units for non-parametric coordinates.

mtllib powerup.mtl
g default
v 3.687326 -0.000000 -3.513139
v 3.406666 -0.000000 -4.063967
v 1.071163 -0.000000 -4.612010
v 0.520335 -0.000000 -4.892670
v -0.860065 0.001271 -7.010997
v -1.470663 0.001271 -6.914288
v -2.021491 0.001271 -6.633627
v -2.458630 0.001271 -6.196487
v -1.969488 0.000000 -3.624041
v -2.066197 0.000000 -3.013444
v -3.013322 -0.000000 -0.611137
v -2.732661 -0.000000 -0.060309
v -2.309795 -0.011475 0.417018
v -1.744694 -0.000000 0.657491
v -1.134097 -0.000000 0.754200
v 0.520334 -0.000000 -1.134218
v 1.071162 -0.000000 -1.414880
v 3.406664 -0.000000 -1.741116
v 3.687325 -0.000000 -2.291944
v 3.784034 -0.000000 -2.902541
v 3.687326 0.239674 -3.472951
v 3.406666 0.239674 -4.023779
v 1.071163 0.890358 -4.612010
v 0.520335 0.890358 -4.892670
v -0.860065 0.240945 -6.970810
v -1.470663 0.240945 -6.874101
v -2.021491 0.240945 -6.593440
v -2.458630 0.240945 -6.156300
v -1.969488 0.890358 -3.624041
v -2.066197 0.890358 -3.013444
v -3.013322 0.239674 -0.570949
v -2.732661 0.239674 -0.020122
v -2.295522 0.239674 0.417018
v -1.744694 0.239674 0.697679
v -1.134097 0.239674 0.794388
v 0.520334 0.890358 -1.134218
v 1.071162 0.890358 -1.414880
v 3.406664 0.239674 -1.700928
v 3.687325 0.239674 -2.251756
v 3.784034 0.239674 -2.862353
v -0.355057 -0.650684 -3.201353
v -0.355057 0.890358 -3.241541
v -0.502512 8.177810 -6.993515
v -0.187995 8.046223 1.082979
v -0.520259 1.453037 -7.102387
v -0.205742 1.321450 0.974107
v -0.838101 8.134075 0.890272
v -1.068026 8.002488 -7.189073
v -0.821495 1.409302 0.999324
v -1.051419 1.277716 -7.080021
vt 0.393135 0.494003
vt 0.407429 0.496400
vt 0.393135 0.526853
vt 0.407429 0.529249
vt 0.526581 0.468945
vt 0.526581 0.608228
vt 0.512287 0.468945
vt 0.473482 0.608228
vt 0.526581 0.641077
vt 0.473482 0.641077
vt 0.526505 0.723401
vt 0.512211 0.723401
vt 0.526505 0.759815
vt 0.512211 0.759815
vt 0.526505 0.792664
vt 0.512211 0.792664
vt 0.526505 0.818734
vt 0.512211 0.818734
vt 0.533476 0.863355
vt 0.533400 0.709942
vt 0.547769 0.860959
vt 0.586498 0.709942
vt 0.533400 0.673528
vt 0.586498 0.673528
vt 0.533400 0.530261
vt 0.547694 0.527865
vt 0.533400 0.497412
vt 0.547694 0.495015
vt 0.532716 0.468945
vt 0.547694 0.468945
vt 0.413564 0.834916
vt 0.414249 0.801215
vt 0.428542 0.834064
vt 0.428542 0.801215
vt 0.414249 0.764800
vt 0.428542 0.764800
vt 0.414249 0.666135
vt 0.467347 0.666135
vt 0.414249 0.633285
vt 0.467347 0.633285
vt 0.414249 0.494003
vt 0.428542 0.494003
vt 0.393135 0.599681
vt 0.407429 0.602078
vt 0.393135 0.632531
vt 0.407429 0.634928
vt 0.393135 0.563267
vt 0.407429 0.565664
vt 0.800183 0.177613
vt 0.816921 0.210462
vt 0.575845 0.229056
vt 0.660900 0.144929
vt 0.628051 0.128191
vt 0.545728 0.001860
vt 0.509313 0.007628
vt 0.476464 0.024366
vt 0.450394 0.050435
vt 0.479565 0.203848
vt 0.473798 0.240263
vt 0.417314 0.383529
vt 0.434052 0.416379
vt 0.459270 0.444845
vt 0.492971 0.459186
vt 0.529385 0.464954
vt 0.628051 0.352334
vt 0.660900 0.335596
vt 0.800183 0.316141
vt 0.816921 0.283291
vt 0.822688 0.246877
vt 0.992241 0.723437
vt 0.975503 0.756287
vt 0.751165 0.709636
vt 0.836220 0.791367
vt 0.803371 0.808105
vt 0.721048 0.932039
vt 0.684633 0.926271
vt 0.651784 0.909534
vt 0.625714 0.883464
vt 0.654885 0.732447
vt 0.649117 0.696033
vt 0.592634 0.550370
vt 0.609372 0.517520
vt 0.635441 0.491451
vt 0.668291 0.474713
vt 0.704705 0.468945
vt 0.803371 0.583962
vt 0.836220 0.600699
vt 0.975503 0.617759
vt 0.992241 0.650608
vt 0.998008 0.687023
vt 0.410885 0.008353
vt 0.403037 0.490011
vt 0.009839 0.001860
vt 0.001992 0.483519
vt 0.410885 0.008353
vt 0.403037 0.490011
vt 0.009839 0.001860
vt 0.001992 0.483519
vn 0.367518 0.153797 -0.917212
vn 0.339014 0.086175 -0.936826
vn 0.944660 0.054250 -0.323533
vn 0.954615 0.049255 -0.293742
vn 0.289704 0.002323 -0.957113
vn 0.295028 0.000000 -0.955489
vn 0.771433 0.001299 -0.636309
vn 0.764018 0.000000 -0.645195
vn 0.572501 0.135585 -0.808616
vn 0.695104 0.083672 -0.714023
vn -0.250786 0.160082 -0.954715
vn -0.259412 0.159705 -0.952470
vn -0.574470 0.135357 -0.807256
vn -0.590170 0.133497 -0.796165
vn -0.999935 0.001888 -0.011266
vn -0.995281 -0.003464 0.096972
vn -0.992597 -0.000426 0.121458
vn -0.993456 0.000000 0.114219
vn -0.946670 0.000799 -0.322204
vn -0.948094 0.000000 -0.317991
vn -0.969218 0.040714 -0.242813
vn -0.964767 0.017438 -0.262529
vn -0.827855 -0.092762 0.553220
vn -0.812428 -0.076288 0.578050
vn -0.571132 0.013581 0.820746
vn -0.562800 0.011133 0.826518
vn -0.303920 -0.135380 0.943030
vn -0.300285 -0.157737 0.940717
vn 0.622349 -0.129441 0.771963
vn 0.675091 -0.073859 0.734028
vn 0.705674 -0.001494 0.708535
vn 0.699755 0.000000 0.714383
vn 0.195660 -0.002439 0.980669
vn 0.203890 0.000000 0.978994
vn 0.329850 -0.156115 0.931035
vn 0.227292 -0.088855 0.969764
vn 0.954615 -0.049254 0.293743
vn 0.944660 -0.054249 0.323534
vn 0.999859 0.002773 -0.016540
vn 0.999859 -0.002774 0.016542
vn 0.130271 -0.976992 -0.168868
vn 0.155292 -0.986797 -0.046000
vn -0.017364 -0.999818 -0.007884
vn 0.091293 -0.936160 -0.339516
vn 0.278672 -0.935828 -0.215797
vn 0.096046 -0.978919 -0.180257
vn -0.050868 -0.986148 -0.157874
vn -0.097499 -0.985364 -0.139830
vn -0.216206 -0.974486 -0.060269
vn -0.385133 -0.921358 0.052658
vn -0.364935 -0.921683 -0.131613
vn -0.228518 -0.973488 0.010026
vn -0.146737 -0.984800 0.092934
vn -0.086617 -0.988017 0.127747
vn -0.034967 -0.987465 0.153915
vn 0.082553 -0.980639 0.177573
vn 0.213222 -0.954157 0.210050
vn 0.057076 -0.951873 0.301132
vn 0.105549 -0.980620 0.165060
vn 0.148525 -0.987811 0.046579
vn 0.155210 -0.987881 0.001236
vn 0.156191 0.986660 -0.045896
vn 0.173200 0.984791 0.013732
vn -0.003043 0.999995 0.000593
vn 0.182366 0.964740 0.189785
vn -0.208695 0.971702 -0.110645
vn -0.104444 0.982080 -0.156875
vn -0.051775 0.985706 -0.160319
vn -0.098971 0.984960 -0.141626
vn -0.069034 0.983157 -0.169227
vn 0.051796 0.974435 -0.218616
vn 0.031341 0.971462 0.235118
vn -0.104353 0.985175 0.136164
vn -0.131241 0.986057 0.102307
vn -0.089958 0.987692 0.127951
vn -0.047978 0.988078 0.146286
vn -0.117902 0.983691 0.135835
vn -0.214660 0.972610 0.089171
vn 0.204874 0.965629 -0.159961
vn 0.180689 0.983198 -0.025933
vn 0.147608 0.987946 0.046629
vn 0.155157 0.987889 0.001567
vn 0.999239 -0.002007 -0.038945
vn 0.999239 -0.002007 -0.038945
vn 0.999239 -0.002007 -0.038945
vn 0.999239 -0.002007 -0.038945
vn -0.999592 -0.002007 0.028479
vn -0.999592 -0.002007 0.028479
vn -0.999592 -0.002007 0.028479
vn -0.999592 -0.002007 0.028479
s 1
g polySurface2
usemtl initialShadingGroup
f 2/1/1 22/2/2 1/3/3
f 1/3/3 22/2/2 21/4/4
f 2/5/1 3/6/5 22/7/2
f 22/7/2 3/6/5 23/8/6
f 3/6/5 4/9/7 23/8/6
f 23/8/6 4/9/7 24/10/8
f 5/11/9 25/12/10 4/9/7
f 4/9/7 25/12/10 24/10/8
f 5/11/9 6/13/11 26/14/12 25/12/10
f 6/13/11 7/15/13 26/14/12
f 26/14/12 7/15/13 27/16/14
f 7/15/13 8/17/15 27/16/14
f 27/16/14 8/17/15 28/18/16
f 8/19/15 9/20/17 28/21/16
f 28/21/16 9/20/17 29/22/18
f 9/20/17 10/23/19 29/22/18
f 29/22/18 10/23/19 30/24/20
f 11/25/21 31/26/22 10/23/19
f 10/23/19 31/26/22 30/24/20
f 11/25/21 12/27/23 31/26/22
f 31/26/22 12/27/23 32/28/24
f 12/27/23 13/29/25 32/28/24
f 32/28/24 13/29/25 33/30/26
f 13/31/25 14/32/27 33/33/26
f 33/33/26 14/32/27 34/34/28
f 14/32/27 15/35/29 34/34/28
f 34/34/28 15/35/29 35/36/30
f 15/35/29 16/37/31 35/36/30
f 35/36/30 16/37/31 36/38/32
f 16/37/31 17/39/33 36/38/32
f 36/38/32 17/39/33 37/40/34
f 18/41/35 38/42/36 17/39/33
f 17/39/33 38/42/36 37/40/34
f 19/43/37 39/44/38 18/45/35
f 18/45/35 39/44/38 38/46/36
f 20/47/39 40/48/40 19/43/37
f 19/43/37 40/48/40 39/44/38
f 1/3/3 21/4/4 20/47/39
f 20/47/39 21/4/4 40/48/40
s 7
f 2/49/41 1/50/42 41/51/43
f 3/52/44 2/49/41 41/51/43
f 4/53/45 3/52/44 41/51/43
f 5/54/46 4/53/45 41/51/43
f 6/55/47 5/54/46 41/51/43
f 7/56/48 6/55/47 41/51/43
f 8/57/49 7/56/48 41/51/43
f 9/58/50 8/57/49 41/51/43
f 10/59/51 9/58/50 41/51/43
f 11/60/52 10/59/51 41/51/43
f 12/61/53 11/60/52 41/51/43
f 13/62/54 12/61/53 41/51/43
f 14/63/55 13/62/54 41/51/43
f 15/64/56 14/63/55 41/51/43
f 16/65/57 15/64/56 41/51/43
f 17/66/58 16/65/57 41/51/43
f 18/67/59 17/66/58 41/51/43
f 19/68/60 18/67/59 41/51/43
f 20/69/61 19/68/60 41/51/43
f 1/50/42 20/69/61 41/51/43
s 8
f 21/70/62 22/71/63 42/72/64
f 22/71/63 23/73/65 42/72/64
f 23/73/65 24/74/66 42/72/64
f 24/74/66 25/75/67 42/72/64
f 25/75/67 26/76/68 42/72/64
f 26/76/68 27/77/69 42/72/64
f 27/77/69 28/78/70 42/72/64
f 28/78/70 29/79/71 42/72/64
f 29/79/71 30/80/72 42/72/64
f 30/80/72 31/81/73 42/72/64
f 31/81/73 32/82/74 42/72/64
f 32/82/74 33/83/75 42/72/64
f 33/83/75 34/84/76 42/72/64
f 34/84/76 35/85/77 42/72/64
f 35/85/77 36/86/78 42/72/64
f 36/86/78 37/87/79 42/72/64
f 37/87/79 38/88/80 42/72/64
f 38/88/80 39/89/81 42/72/64
f 39/89/81 40/90/82 42/72/64
f 40/90/82 21/70/62 42/72/64
s 9
f 43/91/83 44/92/84 45/93/85
f 45/93/85 44/92/84 46/94/86
s 10
f 47/95/87 48/96/88 49/97/89
f 49/97/89 48/96/88 50/98/90
